<svg id="svg" xmlns="http://www.w3.org/2000/svg" xmlns:xlink="http://www.w3.org/1999/xlink" width="400" height="400" viewBox="0, 0, 400,400"><g id="svgg"><path id="path0" d="M120.181 38.986 C 120.179 39.138,120.718 39.707,121.379 40.250 L 122.581 41.237 122.581 50.388 C 122.581 61.669,121.819 64.189,118.381 64.280 C 114.768 64.374,113.872 61.766,113.642 50.489 L 113.472 42.175 114.458 41.003 C 115.909 39.279,115.502 39.078,110.550 39.078 C 105.953 39.078,104.765 39.667,107.204 40.737 C 108.043 41.105,108.044 41.117,107.984 48.848 C 107.885 61.628,110.456 65.991,118.087 65.991 C 124.712 65.991,126.066 63.177,126.077 49.393 L 126.083 41.089 127.373 40.394 C 129.776 39.100,129.092 38.710,124.424 38.710 C 122.092 38.710,120.183 38.834,120.181 38.986 M83.938 39.328 C 80.803 39.492,80.405 39.933,82.500 40.922 L 83.671 41.475 83.678 46.083 C 83.681 48.618,83.576 53.808,83.442 57.618 L 83.200 64.544 82.153 65.162 C 79.761 66.576,80.670 66.821,87.650 66.646 C 96.645 66.421,98.934 65.528,100.478 61.643 C 101.687 58.599,100.226 54.977,97.115 53.310 C 96.319 52.883,95.601 52.495,95.518 52.446 C 95.435 52.397,95.864 51.882,96.472 51.302 C 98.857 49.023,99.539 47.789,99.539 45.757 C 99.539 40.099,96.119 38.689,83.938 39.328 M132.719 42.021 C 132.719 44.913,132.738 44.977,133.623 44.977 C 134.523 44.977,135.292 43.412,135.297 41.567 C 135.299 41.032,135.641 40.922,137.286 40.922 L 139.272 40.922 139.544 50.005 C 139.998 65.128,140.059 64.589,137.809 65.339 C 137.570 65.418,137.485 65.759,137.618 66.105 C 137.978 67.043,147.583 67.054,147.400 66.116 C 147.335 65.780,146.746 65.241,146.091 64.918 L 144.902 64.332 144.893 52.627 L 144.885 40.922 146.898 40.922 L 148.912 40.922 149.313 42.488 C 149.930 44.901,149.974 44.977,150.755 44.977 C 151.617 44.977,152.006 43.494,151.823 40.913 L 151.705 39.263 142.212 39.164 L 132.719 39.066 132.719 42.021 M179.419 39.354 C 172.142 39.469,171.310 39.708,173.968 40.922 L 175.179 41.475 174.954 50.323 C 174.644 62.468,174.521 63.578,173.418 64.168 C 171.743 65.064,172.375 65.543,175.576 65.803 C 181.503 66.285,184.497 65.438,181.400 64.155 L 180.276 63.689 180.276 58.204 L 180.276 52.719 181.744 52.719 C 183.084 52.719,183.276 52.846,183.963 54.194 C 184.991 56.207,186.176 56.257,186.172 54.286 C 186.161 48.476,185.067 46.056,183.963 49.401 C 183.495 50.820,183.416 50.876,181.876 50.876 L 180.276 50.876 180.276 45.899 L 180.276 40.922 184.468 40.922 L 188.660 40.922 189.113 42.673 C 189.361 43.636,189.627 44.631,189.702 44.885 C 189.777 45.138,190.155 45.346,190.541 45.346 C 191.363 45.346,191.705 44.087,191.705 41.060 L 191.705 39.078 189.032 39.162 C 187.562 39.208,183.236 39.294,179.419 39.354 M213.155 39.331 C 210.590 39.499,210.338 39.947,212.273 40.900 L 213.439 41.475 213.424 44.793 C 213.415 46.618,213.279 51.664,213.121 56.008 L 212.833 63.904 211.854 64.685 C 210.296 65.928,210.568 66.502,212.586 66.225 C 213.527 66.096,215.697 65.991,217.409 65.991 C 220.597 65.991,221.290 65.548,219.423 64.705 C 218.660 64.361,218.618 64.108,218.618 59.959 L 218.618 55.576 219.816 55.806 C 222.440 56.308,223.562 58.933,223.317 63.998 C 223.101 68.460,230.088 71.398,231.363 67.382 C 231.674 66.403,231.263 66.113,230.362 66.675 C 229.323 67.325,229.341 67.375,228.788 62.329 C 228.203 56.999,227.321 55.415,224.559 54.734 L 223.012 54.352 224.335 53.874 C 227.491 52.733,229.215 49.397,228.860 45.118 C 228.443 40.096,224.368 38.594,213.155 39.331 M256.590 42.028 C 256.590 45.952,258.030 46.543,258.834 42.949 L 259.288 40.922 261.199 40.922 L 263.110 40.922 263.351 47.281 C 263.484 50.779,263.593 55.995,263.593 58.873 L 263.594 64.106 262.488 64.759 C 259.941 66.264,260.924 66.759,266.237 66.647 C 271.511 66.535,272.442 66.137,270.074 65.008 L 268.756 64.380 268.756 52.651 L 268.756 40.922 270.725 40.922 C 272.763 40.922,273.548 41.882,273.548 44.375 C 273.548 44.771,273.863 44.977,274.470 44.977 C 275.376 44.977,275.392 44.928,275.392 42.028 L 275.392 39.078 265.991 39.078 L 256.590 39.078 256.590 42.028 M196.578 39.908 C 196.656 40.161,197.247 40.618,197.891 40.922 L 199.062 41.475 199.076 45.899 C 199.105 55.254,198.301 63.675,197.330 64.195 C 196.857 64.448,196.520 64.914,196.581 65.231 C 196.742 66.074,206.083 66.302,206.083 65.463 C 206.083 64.895,204.699 63.410,204.170 63.410 C 204.006 63.410,203.871 58.371,203.871 52.212 L 203.871 41.014 204.977 40.793 C 205.626 40.663,206.083 40.339,206.083 40.009 C 206.083 39.534,205.336 39.447,201.260 39.447 C 197.571 39.447,196.470 39.555,196.578 39.908 M238.710 40.146 C 235.168 41.786,233.919 45.056,235.548 48.422 C 236.391 50.162,237.833 51.299,242.797 54.137 C 247.907 57.058,249.219 59.641,247.321 63.044 C 244.384 68.314,236.125 64.602,238.859 59.240 C 239.927 57.145,238.891 56.173,236.953 57.451 C 231.120 61.298,237.477 68.185,245.578 66.796 C 256.253 64.965,256.334 55.177,245.714 50.165 C 239.770 47.360,238.305 44.961,240.873 42.238 C 243.188 39.784,245.854 40.737,248.175 44.850 C 250.086 48.235,251.429 47.276,251.429 42.527 C 251.429 39.149,250.642 38.262,249.842 40.737 C 249.645 41.346,249.440 41.896,249.387 41.961 C 249.333 42.025,248.513 41.486,247.566 40.763 C 245.472 39.164,241.437 38.883,238.710 40.146 M91.613 42.129 C 95.510 44.072,94.446 50.136,90.046 51.053 L 88.848 51.303 88.848 46.290 L 88.848 41.276 89.862 41.519 C 90.419 41.652,91.207 41.926,91.613 42.129 M221.679 42.095 C 224.863 43.764,224.213 51.425,220.829 52.112 C 220.323 52.214,219.618 52.411,219.263 52.548 C 218.665 52.779,218.618 52.372,218.618 47.015 L 218.618 41.232 219.816 41.489 C 220.475 41.630,221.313 41.903,221.679 42.095 M92.017 54.527 C 96.201 56.427,95.781 61.770,91.287 63.811 C 88.775 64.951,88.848 65.089,88.848 59.171 C 88.848 53.088,88.848 53.088,92.017 54.527 M83.130 75.526 C 80.997 76.496,79.416 78.492,78.542 81.323 C 77.412 84.982,77.358 292.677,78.487 295.115 C 79.282 296.832,80.604 298.106,83.015 299.479 L 84.740 300.461 101.448 300.456 L 118.157 300.451 119.001 297.050 C 123.000 280.949,133.414 271.074,145.649 271.783 C 155.033 272.326,161.647 281.663,162.113 295.026 L 162.303 300.468 180.728 300.372 L 199.153 300.276 200.009 296.891 C 201.750 290.004,206.550 279.802,211.769 271.896 C 227.578 247.946,244.104 258.359,240.134 289.770 C 239.829 292.186,240.396 291.330,242.210 286.636 C 254.903 253.784,277.501 248.798,278.967 278.525 C 279.256 284.384,277.735 294.574,275.925 298.906 C 275.632 299.608,275.392 300.266,275.392 300.369 C 275.392 301.038,281.336 300.136,282.876 299.233 C 287.009 296.811,287.189 295.909,287.189 277.601 L 287.189 262.601 291.101 262.361 C 332.145 259.850,363.865 220.606,358.553 178.909 C 354.050 143.557,325.037 115.383,290.991 113.300 L 287.226 113.070 287.114 97.549 C 286.976 78.324,286.702 77.263,281.383 75.365 C 278.892 74.476,85.095 74.634,83.130 75.526 M152.926 114.281 C 160.513 116.276,167.436 120.205,172.720 125.515 C 175.300 128.108,177.048 130.505,181.264 137.235 C 182.401 139.049,182.431 139.036,184.147 135.949 C 194.964 116.502,216.261 108.301,235.202 116.289 C 261.591 127.419,265.620 166.467,244.370 205.128 C 234.808 222.524,213.012 244.105,188.387 260.557 L 182.304 264.621 181.198 264.059 C 180.081 263.491,177.315 261.498,166.496 253.470 C 126.118 223.505,106.716 192.133,106.751 156.866 C 106.775 132.254,116.390 118.979,138.065 113.636 C 141.449 112.802,148.459 113.106,152.926 114.281 M294.779 133.853 C 335.125 145.162,348.798 196.066,319.655 226.466 C 311.421 235.055,296.295 242.949,288.071 242.949 L 287.189 242.949 287.189 187.615 L 287.189 132.281 289.124 132.546 C 290.189 132.691,292.734 133.279,294.779 133.853 M262.469 262.741 C 249.855 268.958,236.163 302.542,234.953 330.230 C 234.750 334.884,234.651 335.484,234.084 335.484 C 233.732 335.484,231.222 337.267,228.508 339.447 C 222.884 343.962,215.667 349.130,210.956 352.014 C 209.188 353.097,206.725 354.621,205.483 355.401 L 203.224 356.820 202.998 355.092 C 202.874 354.142,202.662 349.773,202.528 345.384 L 202.284 337.404 203.538 336.759 C 221.605 327.472,238.103 300.852,238.149 280.912 C 238.199 259.363,226.096 255.203,214.445 272.764 C 204.031 288.459,197.489 310.255,196.617 332.159 L 196.375 338.235 194.501 340.107 C 192.265 342.340,189.394 343.823,186.225 344.381 C 183.203 344.913,183.199 344.906,183.830 339.724 C 185.410 326.743,183.926 320.201,178.818 317.612 C 170.740 313.519,162.970 325.603,167.345 335.453 C 169.051 339.293,168.441 341.051,162.031 350.784 C 154.846 361.693,148.857 364.887,142.009 361.461 C 131.562 356.235,124.509 336.927,125.179 315.392 C 125.971 289.946,132.226 277.442,144.173 277.425 C 153.095 277.411,157.244 287.937,153.542 301.198 C 152.191 306.040,152.654 307.465,155.582 307.465 C 160.956 307.465,160.920 289.012,155.531 280.941 C 148.850 270.936,134.831 273.066,126.795 285.307 C 118.562 297.848,116.159 326.941,122.040 342.890 C 130.397 365.555,145.702 372.934,158.371 360.405 C 161.112 357.695,167.344 349.025,167.388 347.861 C 167.397 347.643,167.890 349.326,168.484 351.601 C 170.636 359.831,172.759 362.048,176.259 359.720 C 177.680 358.774,181.240 352.175,181.624 349.773 L 181.845 348.387 184.102 348.383 C 187.927 348.375,193.035 346.470,195.599 344.094 C 196.880 342.907,196.866 342.887,196.868 345.899 C 196.884 369.238,203.249 389.880,210.385 389.736 C 219.849 389.546,218.352 367.983,208.355 360.493 L 206.060 358.774 210.403 356.115 C 218.834 350.954,231.587 342.365,233.774 340.375 L 234.737 339.499 234.986 344.588 C 236.581 377.135,242.485 393.582,250.986 389.159 C 258.362 385.322,254.795 365.655,245.666 359.829 L 244.143 358.857 249.168 355.770 C 255.871 351.653,265.309 345.426,268.899 342.751 C 271.951 340.477,272.424 340.444,272.437 342.503 C 272.456 345.622,276.050 349.124,279.233 349.124 C 282.916 349.124,285.290 347.969,290.415 343.681 C 291.720 342.590,292.402 342.222,292.507 342.552 C 292.593 342.821,292.851 343.653,293.081 344.401 C 294.048 347.551,297.870 349.862,301.132 349.271 C 306.146 348.361,317.929 338.353,316.299 336.388 C 315.322 335.211,313.877 335.768,310.096 338.780 C 302.714 344.661,298.618 345.000,298.618 339.730 L 298.618 338.177 302.396 335.570 C 310.253 330.149,313.375 325.139,310.616 322.380 C 307.249 319.013,296.823 326.795,293.556 335.113 C 292.259 338.415,282.668 344.212,280.339 343.102 C 276.995 341.507,277.520 338.780,281.700 336.033 C 289.545 330.877,293.115 325.528,290.658 322.609 C 287.625 319.003,277.260 326.007,274.040 333.838 C 273.497 335.157,273.182 335.483,272.442 335.493 C 271.849 335.500,270.446 336.415,268.503 338.059 C 263.200 342.547,242.493 356.866,241.305 356.866 C 241.249 356.866,241.094 353.756,240.960 349.954 C 240.826 346.152,240.618 341.768,240.497 340.212 L 240.278 337.383 242.443 336.285 C 251.706 331.587,264.228 317.836,269.884 306.152 C 281.267 282.635,276.673 255.740,262.469 262.741 M230.695 266.603 C 234.530 268.973,234.715 280.187,231.156 294.562 C 228.318 306.023,219.237 320.371,210.254 327.589 C 206.368 330.711,202.893 333.272,202.543 333.272 C 201.746 333.272,203.543 315.996,205.188 307.834 C 210.332 282.323,222.999 261.847,230.695 266.603 M269.093 266.832 C 271.395 268.548,272.321 272.629,271.914 279.263 C 270.582 300.953,260.439 319.427,243.134 331.680 L 240.553 333.508 240.811 328.321 C 241.870 307.040,248.391 285.194,257.436 272.627 C 261.743 266.643,266.000 264.527,269.093 266.832 M225.588 269.839 C 221.407 272.608,215.392 283.258,211.597 294.609 C 209.419 301.126,208.680 300.493,218.322 300.376 L 226.506 300.276 227.904 295.853 C 229.603 290.475,230.864 282.549,230.895 277.051 C 230.938 269.477,229.364 267.338,225.588 269.839 M263.454 270.070 C 259.204 273.315,253.935 282.712,250.165 293.767 C 249.035 297.081,248.111 299.943,248.111 300.127 C 248.111 300.317,251.689 300.461,256.394 300.461 L 264.677 300.461 265.592 297.419 C 268.105 289.062,269.118 283.017,269.098 276.498 C 269.074 268.924,267.421 267.041,263.454 270.070 M140.465 280.631 C 135.484 282.543,129.401 292.860,129.401 299.396 L 129.401 300.461 140.079 300.461 L 150.757 300.461 151.206 299.631 C 152.087 298.000,152.087 289.077,151.206 286.176 C 149.486 280.515,145.768 278.595,140.465 280.631 M178.147 322.561 C 181.058 325.963,181.713 333.260,179.836 341.392 C 179.308 343.678,179.298 343.677,176.586 341.106 L 174.350 338.986 174.917 336.848 C 175.989 332.806,175.537 331.926,172.570 332.277 C 170.801 332.487,170.771 332.474,170.549 331.360 C 169.101 324.123,174.315 318.085,178.147 322.561 M286.788 326.753 C 285.676 328.287,280.601 333.074,280.351 332.824 C 279.864 332.337,284.286 327.212,286.429 325.779 C 287.692 324.936,287.831 325.315,286.788 326.753 M307.834 325.509 C 307.834 326.008,304.038 330.037,301.827 331.885 L 299.946 333.456 300.664 332.166 C 302.100 329.586,307.834 324.262,307.834 325.509 M176.042 346.210 C 178.389 347.534,178.328 347.303,177.152 350.426 C 175.738 354.181,174.541 356.044,174.241 354.954 C 173.894 353.693,173.486 345.069,173.774 345.069 C 173.909 345.069,174.930 345.583,176.042 346.210 M207.833 364.793 C 213.056 370.786,214.966 385.221,210.749 386.839 C 208.187 387.823,204.596 376.409,203.720 364.494 L 203.508 361.615 205.028 362.466 C 205.864 362.935,207.126 363.982,207.833 364.793 M245.891 364.823 C 251.090 370.308,253.166 382.104,249.629 386.062 L 248.632 387.178 247.499 386.224 C 245.216 384.303,241.843 370.172,241.843 362.526 L 241.843 361.617 242.979 362.283 C 243.604 362.650,244.914 363.793,245.891 364.823 " stroke="none" fill="#000000" fill-rule="evenodd"></path></g></svg>